<mxfile host="Electron" modified="2023-09-05T01:52:48.689Z" agent="Mozilla/5.0 (Macintosh; Intel Mac OS X 10_15_7) AppleWebKit/537.36 (KHTML, like Gecko) draw.io/21.6.8 Chrome/114.0.5735.289 Electron/25.5.0 Safari/537.36" etag="xe34Pt0WC_4qx_tOborA" version="21.6.8" type="device">
  <diagram name="第 1 页" id="OhGLHNQQwN_pFTgux91R">
    <mxGraphModel dx="1831" dy="765" grid="0" gridSize="10" guides="1" tooltips="1" connect="1" arrows="1" fold="1" page="0" pageScale="1" pageWidth="827" pageHeight="1169" math="1" shadow="0">
      <root>
        <mxCell id="0" />
        <mxCell id="1" parent="0" />
        <mxCell id="U7nJ9NZ2WO3vNBu0O212-37" style="edgeStyle=orthogonalEdgeStyle;orthogonalLoop=1;jettySize=auto;html=1;entryX=0.5;entryY=0;entryDx=0;entryDy=0;rounded=1;" parent="1" source="U7nJ9NZ2WO3vNBu0O212-29" target="U7nJ9NZ2WO3vNBu0O212-26" edge="1">
          <mxGeometry relative="1" as="geometry">
            <Array as="points">
              <mxPoint x="190" y="416" />
              <mxPoint x="45" y="416" />
            </Array>
          </mxGeometry>
        </mxCell>
        <mxCell id="U7nJ9NZ2WO3vNBu0O212-29" value="Client" style="swimlane;fillColor=#fff2cc;strokeColor=#d6b656;fontSize=13;" parent="1" vertex="1">
          <mxGeometry x="92" y="122" width="200" height="262" as="geometry" />
        </mxCell>
        <mxCell id="U7nJ9NZ2WO3vNBu0O212-33" style="edgeStyle=orthogonalEdgeStyle;rounded=0;orthogonalLoop=1;jettySize=auto;html=1;entryX=0.5;entryY=0;entryDx=0;entryDy=0;fillColor=#fff2cc;strokeColor=#d6b656;" parent="U7nJ9NZ2WO3vNBu0O212-29" source="U7nJ9NZ2WO3vNBu0O212-25" target="U7nJ9NZ2WO3vNBu0O212-27" edge="1">
          <mxGeometry relative="1" as="geometry" />
        </mxCell>
        <mxCell id="U7nJ9NZ2WO3vNBu0O212-25" value="发送数据&lt;br&gt;sendto() / write()" style="rounded=0;whiteSpace=wrap;html=1;fillColor=#fff2cc;strokeColor=#d6b656;" parent="U7nJ9NZ2WO3vNBu0O212-29" vertex="1">
          <mxGeometry x="38" y="115" width="120" height="40" as="geometry" />
        </mxCell>
        <mxCell id="U7nJ9NZ2WO3vNBu0O212-27" value="接受数据&lt;br&gt;recvfrom() / read()" style="rounded=0;whiteSpace=wrap;html=1;fillColor=#fff2cc;strokeColor=#d6b656;" parent="U7nJ9NZ2WO3vNBu0O212-29" vertex="1">
          <mxGeometry x="38" y="193" width="120" height="40" as="geometry" />
        </mxCell>
        <mxCell id="sJfw73mB4qBV3RjvSP3Q-5" style="edgeStyle=orthogonalEdgeStyle;rounded=0;orthogonalLoop=1;jettySize=auto;html=1;entryX=0.5;entryY=0;entryDx=0;entryDy=0;fillColor=#fff2cc;strokeColor=#d6b656;" edge="1" parent="U7nJ9NZ2WO3vNBu0O212-29" source="sJfw73mB4qBV3RjvSP3Q-3" target="U7nJ9NZ2WO3vNBu0O212-25">
          <mxGeometry relative="1" as="geometry" />
        </mxCell>
        <mxCell id="sJfw73mB4qBV3RjvSP3Q-3" value="注册目标IP和端口&lt;br&gt;connect()" style="rounded=0;whiteSpace=wrap;html=1;fillColor=#fff2cc;strokeColor=#d6b656;dashed=1;" vertex="1" parent="U7nJ9NZ2WO3vNBu0O212-29">
          <mxGeometry x="38" y="36" width="120" height="40" as="geometry" />
        </mxCell>
        <mxCell id="U7nJ9NZ2WO3vNBu0O212-36" style="edgeStyle=orthogonalEdgeStyle;orthogonalLoop=1;jettySize=auto;html=1;entryX=0.5;entryY=0;entryDx=0;entryDy=0;exitX=0.5;exitY=1;exitDx=0;exitDy=0;rounded=1;" parent="1" source="U7nJ9NZ2WO3vNBu0O212-28" target="U7nJ9NZ2WO3vNBu0O212-26" edge="1">
          <mxGeometry relative="1" as="geometry">
            <Array as="points">
              <mxPoint x="-115" y="417" />
              <mxPoint x="45" y="417" />
            </Array>
          </mxGeometry>
        </mxCell>
        <mxCell id="U7nJ9NZ2WO3vNBu0O212-28" value="Server" style="swimlane;fillColor=#d5e8d4;strokeColor=#82b366;fontSize=13;" parent="1" vertex="1">
          <mxGeometry x="-215" y="121" width="200" height="263" as="geometry" />
        </mxCell>
        <mxCell id="U7nJ9NZ2WO3vNBu0O212-30" style="edgeStyle=orthogonalEdgeStyle;rounded=0;orthogonalLoop=1;jettySize=auto;html=1;entryX=0.5;entryY=0;entryDx=0;entryDy=0;fillColor=#d5e8d4;strokeColor=#82b366;" parent="1" source="U7nJ9NZ2WO3vNBu0O212-18" target="U7nJ9NZ2WO3vNBu0O212-20" edge="1">
          <mxGeometry relative="1" as="geometry" />
        </mxCell>
        <mxCell id="U7nJ9NZ2WO3vNBu0O212-18" value="分配IP与端口号&lt;br&gt;bind()" style="rounded=0;whiteSpace=wrap;html=1;fillColor=#d5e8d4;strokeColor=#82b366;" parent="1" vertex="1">
          <mxGeometry x="-175" y="158" width="120" height="40" as="geometry" />
        </mxCell>
        <mxCell id="U7nJ9NZ2WO3vNBu0O212-31" style="edgeStyle=orthogonalEdgeStyle;rounded=0;orthogonalLoop=1;jettySize=auto;html=1;entryX=0.5;entryY=0;entryDx=0;entryDy=0;fillColor=#d5e8d4;strokeColor=#82b366;" parent="1" source="U7nJ9NZ2WO3vNBu0O212-20" target="U7nJ9NZ2WO3vNBu0O212-22" edge="1">
          <mxGeometry relative="1" as="geometry" />
        </mxCell>
        <mxCell id="U7nJ9NZ2WO3vNBu0O212-20" value="接受数据&lt;br&gt;recvfrom()&amp;nbsp;/ read()" style="rounded=0;whiteSpace=wrap;html=1;fillColor=#d5e8d4;strokeColor=#82b366;" parent="1" vertex="1">
          <mxGeometry x="-175" y="237" width="120" height="40" as="geometry" />
        </mxCell>
        <mxCell id="U7nJ9NZ2WO3vNBu0O212-22" value="发送数据&lt;br&gt;sendto()&amp;nbsp;/ write()" style="rounded=0;whiteSpace=wrap;html=1;fillColor=#d5e8d4;strokeColor=#82b366;" parent="1" vertex="1">
          <mxGeometry x="-175" y="315" width="120" height="40" as="geometry" />
        </mxCell>
        <mxCell id="U7nJ9NZ2WO3vNBu0O212-34" style="edgeStyle=orthogonalEdgeStyle;rounded=1;orthogonalLoop=1;jettySize=auto;html=1;" parent="1" source="U7nJ9NZ2WO3vNBu0O212-2" target="U7nJ9NZ2WO3vNBu0O212-28" edge="1">
          <mxGeometry relative="1" as="geometry" />
        </mxCell>
        <mxCell id="U7nJ9NZ2WO3vNBu0O212-35" style="edgeStyle=orthogonalEdgeStyle;rounded=1;orthogonalLoop=1;jettySize=auto;html=1;" parent="1" source="U7nJ9NZ2WO3vNBu0O212-2" target="U7nJ9NZ2WO3vNBu0O212-29" edge="1">
          <mxGeometry relative="1" as="geometry">
            <Array as="points">
              <mxPoint x="45" y="102" />
              <mxPoint x="192" y="102" />
            </Array>
          </mxGeometry>
        </mxCell>
        <mxCell id="U7nJ9NZ2WO3vNBu0O212-2" value="创建套接字&lt;br&gt;socket()" style="whiteSpace=wrap;html=1;" parent="1" vertex="1">
          <mxGeometry x="-15" y="40" width="120" height="40" as="geometry" />
        </mxCell>
        <mxCell id="U7nJ9NZ2WO3vNBu0O212-26" value="关闭连接&lt;br&gt;close()" style="rounded=0;whiteSpace=wrap;html=1;" parent="1" vertex="1">
          <mxGeometry x="-15" y="446" width="120" height="40" as="geometry" />
        </mxCell>
        <mxCell id="sJfw73mB4qBV3RjvSP3Q-1" style="edgeStyle=orthogonalEdgeStyle;orthogonalLoop=1;jettySize=auto;html=1;entryX=1;entryY=0.5;entryDx=0;entryDy=0;dashed=1;strokeColor=#B3B3B3;rounded=0;" edge="1" parent="1" source="U7nJ9NZ2WO3vNBu0O212-25" target="U7nJ9NZ2WO3vNBu0O212-20">
          <mxGeometry relative="1" as="geometry" />
        </mxCell>
        <mxCell id="sJfw73mB4qBV3RjvSP3Q-2" style="edgeStyle=orthogonalEdgeStyle;rounded=0;orthogonalLoop=1;jettySize=auto;html=1;dashed=1;strokeColor=#B3B3B3;startArrow=classic;startFill=1;endArrow=none;endFill=0;" edge="1" parent="1" source="U7nJ9NZ2WO3vNBu0O212-27" target="U7nJ9NZ2WO3vNBu0O212-22">
          <mxGeometry relative="1" as="geometry" />
        </mxCell>
      </root>
    </mxGraphModel>
  </diagram>
</mxfile>
